<svg width="310" height="260" viewBox="0 0 310 260" fill="none" xmlns="http://www.w3.org/2000/svg">
<g opacity="0.5" filter="url(#filter0_d_176_286)">
<path d="M20 30C20 18.9543 28.9543 10 40 10H270C281.046 10 290 18.9543 290 30V210C290 221.046 281.046 230 270 230H40C28.9543 230 20 221.046 20 210V30Z" fill="url(#paint0_linear_176_286)" shape-rendering="crispEdges"/>
<path d="M20.5 30C20.5 19.2304 29.2304 10.5 40 10.5H270C280.77 10.5 289.5 19.2304 289.5 30V210C289.5 220.77 280.77 229.5 270 229.5H40C29.2305 229.5 20.5 220.77 20.5 210V30Z" stroke="url(#paint1_linear_176_286)" shape-rendering="crispEdges"/>
</g>
<path d="M60.4286 145L53 152.672V197M60.4286 145H97.5714M60.4286 145V182.508M53 197H105M53 197L60.4286 182.508M105 197V152.672L97.5714 145M105 197L97.5714 182.508M97.5714 145V182.508M60.4286 182.508H97.5714" stroke="#4E78B8" stroke-width="2" stroke-linejoin="round"/>
<path d="M78.8467 170.867C79.1002 170.681 79.2583 170.326 79.2583 169.94L79.2583 166.125L87.9545 166.125C88.3936 166.125 88.75 163.46 88.75 162.875C88.75 162.29 88.3936 159.625 87.9545 159.625L79.2583 159.625L79.2583 155.81C79.2583 155.423 79.1002 155.068 78.8467 154.883C78.5932 154.695 78.2835 154.708 78.0385 154.913L69.6212 161.978C69.39 162.173 69.25 162.511 69.25 162.875C69.25 163.24 69.39 163.577 69.6212 163.772L78.0385 170.838C78.1679 170.945 78.3154 171 78.4628 171C78.5943 171 78.7269 170.955 78.8467 170.867Z" fill="#4E78B8"/>
<path d="M136.429 145L129 152.672V197M136.429 145H173.571M136.429 145V182.508M129 197H181M129 197L136.429 182.508M181 197V152.672L173.571 145M181 197L173.571 182.508M173.571 145V182.508M136.429 182.508H173.571" stroke="#4E78B8" stroke-width="2" stroke-linejoin="round"/>
<path d="M162.992 163.028C162.806 162.775 162.451 162.617 162.065 162.617H158.25V153.921C158.25 153.481 155.585 153.125 155 153.125C154.415 153.125 151.75 153.481 151.75 153.921V162.617H147.935C147.548 162.617 147.193 162.775 147.008 163.028C146.82 163.282 146.833 163.591 147.037 163.836L154.103 172.254C154.298 172.485 154.635 172.625 155 172.625C155.364 172.625 155.702 172.485 155.897 172.254L162.962 163.836C163.07 163.707 163.125 163.56 163.125 163.412C163.125 163.281 163.08 163.148 162.992 163.028Z" fill="#4E78B8"/>
<path d="M136.429 73L129 80.6721V125M136.429 73H173.571M136.429 73V110.508M129 125H181M129 125L136.429 110.508M181 125V80.6721L173.571 73M181 125L173.571 110.508M173.571 73V110.508M136.429 110.508H173.571" stroke="url(#paint2_linear_176_286)" stroke-width="2" stroke-linejoin="round"/>
<path d="M147.008 90.7218C147.194 90.9752 147.549 91.1333 147.935 91.1333L151.75 91.1333L151.75 99.8295C151.75 100.269 154.415 100.625 155 100.625C155.585 100.625 158.25 100.269 158.25 99.8295L158.25 91.1333L162.065 91.1333C162.452 91.1333 162.807 90.9752 162.992 90.7218C163.18 90.4683 163.167 90.1585 162.962 89.9135L155.897 81.4962C155.702 81.265 155.364 81.125 155 81.125C154.635 81.125 154.298 81.265 154.103 81.4962L147.037 89.9135C146.93 90.0429 146.875 90.1904 146.875 90.3378C146.875 90.4693 146.92 90.6019 147.008 90.7218Z" fill="url(#paint3_linear_176_286)"/>
<path d="M208.429 145L201 152.672V197M208.429 145H245.571M208.429 145V182.508M201 197H253M201 197L208.429 182.508M253 197V152.672L245.571 145M253 197L245.571 182.508M245.571 145V182.508M208.429 182.508H245.571" stroke="#4E78B8" stroke-width="2" stroke-linejoin="round"/>
<path d="M227.153 154.883C226.9 155.069 226.742 155.424 226.742 155.81L226.742 159.625L218.045 159.625C217.606 159.625 217.25 162.29 217.25 162.875C217.25 163.46 217.606 166.125 218.045 166.125L226.742 166.125L226.742 169.94C226.742 170.327 226.9 170.682 227.153 170.867C227.407 171.055 227.716 171.042 227.961 170.837L236.379 163.772C236.61 163.577 236.75 163.239 236.75 162.875C236.75 162.51 236.61 162.173 236.379 161.978L227.961 154.912C227.832 154.805 227.685 154.75 227.537 154.75C227.406 154.75 227.273 154.795 227.153 154.883Z" fill="#4E78B8"/>
<path d="M121.181 45.984V37.416L123.197 35.4H128.849L130.793 37.344V38.766H129.065V37.956L128.021 36.912H124.025L122.909 38.028V45.372L124.025 46.488H128.021L129.065 45.444V44.634H130.793V46.056L128.849 48H123.197L121.181 45.984ZM132.587 46.272V40.764L134.315 39.036H139.103L140.813 40.764V46.272L139.103 48H134.315L132.587 46.272ZM138.329 46.542L139.139 45.75V41.286L138.329 40.494H135.071L134.261 41.286V45.75L135.071 46.542H138.329ZM143.156 39.036H144.758V40.8L146.522 39.036H149.33L151.094 40.8V48H149.42V41.304L148.61 40.494H146.9L144.83 42.564V48H143.156V39.036ZM154.161 46.29V40.476H152.541V39.036H154.197V36.12H155.835V39.036H158.625V40.494H155.835V45.75L156.645 46.542H158.625V48H155.889L154.161 46.29ZM160.523 39.036H162.125V40.602L163.673 39.036H166.067V40.494H164.051L162.197 42.366V48H160.523V39.036ZM166.952 46.272V40.764L168.68 39.036H173.468L175.178 40.764V46.272L173.468 48H168.68L166.952 46.272ZM172.694 46.542L173.504 45.75V41.286L172.694 40.494H169.436L168.626 41.286V45.75L169.436 46.542H172.694ZM177.611 35.148H179.285V48H177.611V35.148ZM181.448 46.434V45.318H183.122V45.984L183.734 46.578H186.902L187.514 45.984V44.796L186.902 44.166H183.032L181.52 42.654V40.602L183.068 39.036H187.442L189.008 40.602V41.718H187.334V41.052L186.722 40.458H183.806L183.194 41.052V42.168L183.806 42.798H187.64L189.188 44.346V46.434L187.64 48H183.014L181.448 46.434Z" fill="white"/>
<defs>
<filter id="filter0_d_176_286" x="0" y="0" width="310" height="260" filterUnits="userSpaceOnUse" color-interpolation-filters="sRGB">
<feFlood flood-opacity="0" result="BackgroundImageFix"/>
<feColorMatrix in="SourceAlpha" type="matrix" values="0 0 0 0 0 0 0 0 0 0 0 0 0 0 0 0 0 0 127 0" result="hardAlpha"/>
<feOffset dy="10"/>
<feGaussianBlur stdDeviation="10"/>
<feComposite in2="hardAlpha" operator="out"/>
<feColorMatrix type="matrix" values="0 0 0 0 0 0 0 0 0 0 0 0 0 0 0 0 0 0 0.4 0"/>
<feBlend mode="normal" in2="BackgroundImageFix" result="effect1_dropShadow_176_286"/>
<feBlend mode="normal" in="SourceGraphic" in2="effect1_dropShadow_176_286" result="shape"/>
</filter>
<linearGradient id="paint0_linear_176_286" x1="155" y1="10" x2="155" y2="230" gradientUnits="userSpaceOnUse">
<stop stop-color="#20314B"/>
<stop offset="1" stop-color="#20314B" stop-opacity="0"/>
</linearGradient>
<linearGradient id="paint1_linear_176_286" x1="155" y1="10" x2="155" y2="230" gradientUnits="userSpaceOnUse">
<stop stop-color="#418DFF"/>
<stop offset="0.848958" stop-color="#344371"/>
</linearGradient>
<linearGradient id="paint2_linear_176_286" x1="129" y1="125" x2="181" y2="125" gradientUnits="userSpaceOnUse">
<stop stop-color="#418DFF"/>
<stop offset="1" stop-color="#4BFFDF"/>
</linearGradient>
<linearGradient id="paint3_linear_176_286" x1="163.125" y1="81.125" x2="146.875" y2="81.125" gradientUnits="userSpaceOnUse">
<stop stop-color="#418DFF"/>
<stop offset="1" stop-color="#4BFFDF"/>
</linearGradient>
</defs>
</svg>
