<svg width="171" height="26" viewBox="0 0 171 26" fill="none" xmlns="http://www.w3.org/2000/svg">
<path d="M12.809 0.184326H0V19.3427H12.809V0.184326Z" fill="#02B3FF"/>
<path d="M25.015 19.3429H12.8088V25.2835H25.015V19.3429Z" fill="#CCAE70"/>
<path d="M12.809 19.3429H0V25.2835H12.809V19.3429Z" fill="#23498D"/>
<path d="M25.3167 25.283H35.2625L39.6507 17.6078L34.6778 8.91229L25.3167 25.283Z" fill="#02B3FF"/>
<path d="M39.6508 17.6078L44.0405 25.283H53.9863L44.6237 8.91229L39.6508 17.6078Z" fill="#78D645"/>
<path d="M39.6508 0.217529L34.6779 8.91303L39.6508 17.6085L44.6237 8.91303L39.6508 0.217529Z" fill="#7D4715"/>
<path d="M142.33 25.283H152.276L156.664 17.6078L151.692 8.91229L142.33 25.283Z" fill="#02B3FF"/>
<path d="M171 25.283L161.637 8.91229L156.664 17.6078L161.054 25.283H171Z" fill="#78D645"/>
<path d="M156.664 0.217529L151.691 8.91303L156.664 17.6085L161.637 8.91303L156.664 0.217529Z" fill="#7D4715"/>
<path d="M82.1736 15.7041C86.5227 15.7041 90.0474 12.2303 90.0474 7.94419C90.0474 3.65807 86.5227 0.184326 82.1736 0.184326H65.8927L81.6402 15.7041H82.1736Z" fill="#78D645"/>
<path d="M65.8927 0.184326V15.7041H81.6402L65.8927 0.184326Z" fill="#5D3AA9"/>
<path d="M81.6399 15.7037H65.8924V25.2828H91.3597L81.6399 15.7037Z" fill="#BB1641"/>
<path d="M129.85 13.1303L142.18 25.2832V0.184326H129.85V13.1303Z" fill="#02B3FF"/>
<path d="M116.713 0.184326V12.6417V25.2832H129.85V13.1303L116.713 0.184326Z" fill="#BB1641"/>
<path d="M129.85 25.2835H142.18L129.85 13.1306V25.2835Z" fill="#23498D"/>
<path d="M103.886 -6.10352e-05C100.296 -6.10352e-05 97.0532 1.45538 94.725 3.79596L112.861 21.6696C115.237 19.3751 116.713 16.1791 116.713 12.6415C116.713 5.65982 110.97 -6.10352e-05 103.886 -6.10352e-05Z" fill="#5D3AA9"/>
<path d="M91.0583 12.6425C91.0583 19.6242 96.8013 25.284 103.885 25.284C107.38 25.284 110.546 23.9043 112.859 21.6707L94.7247 3.797C92.4583 6.07817 91.0583 9.19846 91.0583 12.6425Z" fill="#E8C720"/>
</svg>
