<svg width="60" height="60" viewBox="0 0 60 60" fill="none" xmlns="http://www.w3.org/2000/svg">
<path d="M11.4286 4L4 11.6721V56M11.4286 4H48.5714M11.4286 4V41.5082M4 56H56M4 56L11.4286 41.5082M56 56V11.6721L48.5714 4M56 56L48.5714 41.5082M48.5714 4V41.5082M11.4286 41.5082H48.5714" stroke="#4E78B8" stroke-width="2" stroke-linejoin="round"/>
<path d="M37.9921 22.0283C37.8056 21.7748 37.451 21.6168 37.0653 21.6168H33.2499V12.9205C33.2499 12.4814 30.5848 12.125 29.9999 12.125C29.415 12.125 26.7499 12.4814 26.7499 12.9205V21.6168H22.9345C22.5474 21.6168 22.1928 21.7748 22.0078 22.0283C21.8199 22.2818 21.8326 22.5915 22.0374 22.8365L29.1028 31.2538C29.2978 31.485 29.6354 31.625 29.9999 31.625C30.3644 31.625 30.7021 31.485 30.897 31.2538L37.9624 22.8365C38.0698 22.7071 38.1249 22.5597 38.1249 22.4122C38.1249 22.2807 38.0797 22.1481 37.9921 22.0283Z" fill="#4E78B8"/>
</svg>
