<svg width="54" height="54" viewBox="0 0 54 54" fill="none" xmlns="http://www.w3.org/2000/svg">
<path d="M8.42857 1L1 8.67213V53M8.42857 1H45.5714M8.42857 1V38.5082M1 53H53M1 53L8.42857 38.5082M53 53V8.67213L45.5714 1M53 53L45.5714 38.5082M45.5714 1V38.5082M8.42857 38.5082H45.5714" stroke="#4E78B8" stroke-width="2" stroke-linejoin="round"/>
<path d="M34.9921 19.0283C34.8056 18.7748 34.451 18.6168 34.0653 18.6168H30.2499V9.92052C30.2499 9.48141 27.5848 9.12503 26.9999 9.12503C26.415 9.12503 23.7499 9.48141 23.7499 9.92052V18.6168H19.9345C19.5474 18.6168 19.1928 18.7748 19.0078 19.0283C18.8199 19.2818 18.8326 19.5915 19.0374 19.8365L26.1028 28.2538C26.2978 28.485 26.6354 28.625 26.9999 28.625C27.3644 28.625 27.7021 28.485 27.897 28.2538L34.9624 19.8365C35.0698 19.7071 35.1249 19.5597 35.1249 19.4122C35.1249 19.2807 35.0797 19.1481 34.9921 19.0283Z" fill="#4E78B8"/>
</svg>
