<svg width="60" height="60" viewBox="0 0 60 60" fill="none" xmlns="http://www.w3.org/2000/svg">
<path d="M11.4286 4L4 11.6721V56M11.4286 4H48.5714M11.4286 4V41.5082M4 56H56M4 56L11.4286 41.5082M56 56V11.6721L48.5714 4M56 56L48.5714 41.5082M48.5714 4V41.5082M11.4286 41.5082H48.5714" stroke="#4E78B8" stroke-width="2" stroke-linejoin="round"/>
<path d="M29.8467 29.8672C30.1002 29.6807 30.2583 29.3261 30.2583 28.9404L30.2583 25.125L38.9545 25.125C39.3936 25.125 39.75 22.46 39.75 21.8751C39.75 21.2902 39.3936 18.625 38.9545 18.625L30.2583 18.625L30.2583 14.8097C30.2583 14.4226 30.1002 14.068 29.8467 13.8829C29.5932 13.695 29.2835 13.7077 29.0385 13.9126L20.6212 20.9779C20.39 21.1729 20.25 21.5106 20.25 21.8751C20.25 22.2396 20.39 22.5772 20.6212 22.7722L29.0385 29.8376C29.1679 29.9449 29.3154 30 29.4628 30C29.5943 30 29.7269 29.9548 29.8467 29.8672Z" fill="#4E78B8"/>
</svg>
