<svg width="60" height="60" fill="none" xmlns="http://www.w3.org/2000/svg"><path d="M11.429 4 4 11.672V56m7.429-52H48.57M11.43 4v37.508M4 56h52M4 56l7.429-14.492M56 56V11.672L48.571 4M56 56l-7.429-14.492m0-37.508v37.508m-37.142 0H48.57" stroke="#4E78B8" stroke-width="2" stroke-linejoin="round"/><path d="M29.847 29.867c.253-.186.411-.54.411-.927v-3.815h8.697c.439 0 .795-2.665.795-3.25s-.356-3.25-.795-3.25h-8.697V14.81c0-.387-.158-.742-.411-.927a.629.629 0 0 0-.809.03l-8.417 7.065c-.231.195-.371.533-.371.897 0 .365.14.702.371.897l8.418 7.066c.129.107.276.162.424.162a.65.65 0 0 0 .384-.133Z" fill="#4E78B8"/></svg>