<svg width="54" height="54" viewBox="0 0 54 54" fill="none" xmlns="http://www.w3.org/2000/svg">
<path d="M8.42857 1L1 8.67213V53M8.42857 1H45.5714M8.42857 1V38.5082M1 53H53M1 53L8.42857 38.5082M53 53V8.67213L45.5714 1M53 53L45.5714 38.5082M45.5714 1V38.5082M8.42857 38.5082H45.5714" stroke="#4E78B8" stroke-width="2" stroke-linejoin="round"/>
<path d="M26.8467 26.8672C27.1002 26.6807 27.2583 26.3261 27.2583 25.9404L27.2583 22.125L35.9545 22.125C36.3936 22.125 36.75 19.46 36.75 18.8751C36.75 18.2902 36.3936 15.625 35.9545 15.625L27.2583 15.625L27.2583 11.8097C27.2583 11.4226 27.1002 11.068 26.8467 10.8829C26.5932 10.695 26.2835 10.7077 26.0385 10.9126L17.6212 17.9779C17.39 18.1729 17.25 18.5106 17.25 18.8751C17.25 19.2396 17.39 19.5772 17.6212 19.7722L26.0385 26.8376C26.1679 26.9449 26.3154 27 26.4628 27C26.5943 27 26.7269 26.9548 26.8467 26.8672Z" fill="#4E78B8"/>
</svg>
