<svg width="54" height="54" viewBox="0 0 54 54" fill="none" xmlns="http://www.w3.org/2000/svg">
<path d="M8.42857 1L1 8.67213V53M8.42857 1H45.5714M8.42857 1V38.5082M1 53H53M1 53L8.42857 38.5082M53 53V8.67213L45.5714 1M53 53L45.5714 38.5082M45.5714 1V38.5082M8.42857 38.5082H45.5714" stroke="#4E78B8" stroke-width="2" stroke-linejoin="round"/>
<path d="M27.1533 10.8828C26.8998 11.0693 26.7417 11.4239 26.7417 11.8096L26.7417 15.625L18.0455 15.625C17.6064 15.625 17.25 18.2901 17.25 18.875C17.25 19.4599 17.6064 22.125 18.0455 22.125L26.7417 22.125L26.7417 25.9404C26.7417 26.3275 26.8998 26.6821 27.1533 26.8672C27.4068 27.0551 27.7165 27.0423 27.9615 26.8375L36.3788 19.7721C36.61 19.5772 36.75 19.2395 36.75 18.875C36.75 18.5105 36.61 18.1728 36.3788 17.9779L27.9615 10.9125C27.8321 10.8051 27.6846 10.75 27.5372 10.75C27.4057 10.75 27.2731 10.7952 27.1533 10.8828Z" fill="#4E78B8"/>
</svg>
