<svg width="60" height="60" viewBox="0 0 60 60" fill="none" xmlns="http://www.w3.org/2000/svg">
<path d="M11.4286 4L4 11.6721V56M11.4286 4H48.5714M11.4286 4V41.5082M4 56H56M4 56L11.4286 41.5082M56 56V11.6721L48.5714 4M56 56L48.5714 41.5082M48.5714 4V41.5082M11.4286 41.5082H48.5714" stroke="#4E78B8" stroke-width="2" stroke-linejoin="round"/>
<path d="M30.1533 13.8828C29.8998 14.0693 29.7417 14.4239 29.7417 14.8096L29.7417 18.625L21.0455 18.625C20.6064 18.625 20.25 21.2901 20.25 21.875C20.25 22.4599 20.6064 25.125 21.0455 25.125L29.7417 25.125L29.7417 28.9404C29.7417 29.3275 29.8998 29.6821 30.1533 29.8672C30.4068 30.0551 30.7165 30.0423 30.9615 29.8375L39.3788 22.7721C39.61 22.5772 39.75 22.2395 39.75 21.875C39.75 21.5105 39.61 21.1728 39.3788 20.9779L30.9615 13.9125C30.8321 13.8051 30.6846 13.75 30.5372 13.75C30.4057 13.75 30.2731 13.7952 30.1533 13.8828Z" fill="#4E78B8"/>
</svg>
