<svg width="60" height="60" viewBox="0 0 60 60" fill="none" xmlns="http://www.w3.org/2000/svg">
<path d="M11.4286 4L4 11.6721V56M11.4286 4H48.5714M11.4286 4V41.5082M4 56H56M4 56L11.4286 41.5082M56 56V11.6721L48.5714 4M56 56L48.5714 41.5082M48.5714 4V41.5082M11.4286 41.5082H48.5714" stroke="#4E78B8" stroke-width="2" stroke-linejoin="round"/>
<path d="M22.0078 21.7218C22.1943 21.9753 22.5489 22.1333 22.9346 22.1333L26.75 22.1333L26.75 30.8295C26.75 31.2687 29.4151 31.625 30 31.625C30.5849 31.625 33.25 31.2687 33.25 30.8295L33.25 22.1333L37.0653 22.1333C37.4524 22.1333 37.807 21.9753 37.9921 21.7218C38.18 21.4683 38.1673 21.1586 37.9625 20.9136L30.8971 12.4963C30.7021 12.265 30.3645 12.125 30 12.125C29.6355 12.125 29.2978 12.265 29.1028 12.4963L22.0375 20.9136C21.9301 21.043 21.875 21.1904 21.875 21.3378C21.875 21.4693 21.9202 21.6019 22.0078 21.7218Z" fill="#4E78B8"/>
</svg>
