<svg width="54" height="54" viewBox="0 0 54 54" fill="none" xmlns="http://www.w3.org/2000/svg">
<path d="M8.42857 1L1 8.67213V53M8.42857 1H45.5714M8.42857 1V38.5082M1 53H53M1 53L8.42857 38.5082M53 53V8.67213L45.5714 1M53 53L45.5714 38.5082M45.5714 1V38.5082M8.42857 38.5082H45.5714" stroke="#4E78B8" stroke-width="2" stroke-linejoin="round"/>
<path d="M19.0078 18.7218C19.1943 18.9753 19.5489 19.1333 19.9346 19.1333L23.75 19.1333L23.75 27.8295C23.75 28.2687 26.4151 28.625 27 28.625C27.5849 28.625 30.25 28.2687 30.25 27.8295L30.25 19.1333L34.0653 19.1333C34.4524 19.1333 34.807 18.9753 34.9921 18.7218C35.18 18.4683 35.1673 18.1586 34.9625 17.9136L27.8971 9.49626C27.7021 9.26504 27.3645 9.12503 27 9.12503C26.6355 9.12503 26.2978 9.26504 26.1028 9.49626L19.0375 17.9136C18.9301 18.043 18.875 18.1904 18.875 18.3378C18.875 18.4693 18.9202 18.6019 19.0078 18.7218Z" fill="#4E78B8"/>
</svg>
