<svg width="60" height="60" fill="none" xmlns="http://www.w3.org/2000/svg"><path d="M11.429 4 4 11.672V56m7.429-52H48.57M11.43 4v37.508M4 56h52M4 56l7.429-14.492M56 56V11.672L48.571 4M56 56l-7.429-14.492m0-37.508v37.508m-37.142 0H48.57" stroke="#4E78B8" stroke-width="2" stroke-linejoin="round"/><path d="M22.008 21.722c.186.253.54.411.927.411h3.815v8.697c0 .439 2.665.795 3.25.795s3.25-.356 3.25-.796v-8.696h3.815c.387 0 .742-.158.927-.411a.629.629 0 0 0-.03-.808l-7.065-8.418c-.195-.231-.532-.371-.897-.371-.364 0-.702.14-.897.371l-7.066 8.418a.664.664 0 0 0-.162.424c0 .131.045.264.133.384Z" fill="#4E78B8"/></svg>