<svg width="94" height="95" viewBox="0 0 94 95" fill="none" xmlns="http://www.w3.org/2000/svg">
<g filter="url(#filter0_d_176_386)">
<g filter="url(#filter1_d_176_386)">
<path d="M28.4286 21L21 28.6721V73M28.4286 21H65.5714M28.4286 21V58.5082M21 73H73M21 73L28.4286 58.5082M73 73V28.6721L65.5714 21M73 73L65.5714 58.5082M65.5714 21V58.5082M28.4286 58.5082H65.5714" stroke="url(#paint0_linear_176_386)" stroke-width="2" stroke-linejoin="round"/>
</g>
<g filter="url(#filter2_d_176_386)">
<path d="M54.9921 39.0283C54.8056 38.7748 54.451 38.6168 54.0653 38.6168H50.2499V29.9205C50.2499 29.4814 47.5848 29.125 46.9999 29.125C46.415 29.125 43.7499 29.4814 43.7499 29.9205V38.6168H39.9345C39.5474 38.6168 39.1928 38.7748 39.0078 39.0283C38.8199 39.2818 38.8326 39.5915 39.0374 39.8365L46.1028 48.2538C46.2978 48.485 46.6354 48.625 46.9999 48.625C47.3644 48.625 47.7021 48.485 47.897 48.2538L54.9624 39.8365C55.0698 39.7071 55.1249 39.5597 55.1249 39.4122C55.1249 39.2807 55.0797 39.1481 54.9921 39.0283Z" fill="url(#paint1_linear_176_386)"/>
</g>
</g>
<defs>
<filter id="filter0_d_176_386" x="3" y="7" width="88" height="88" filterUnits="userSpaceOnUse" color-interpolation-filters="sRGB">
<feFlood flood-opacity="0" result="BackgroundImageFix"/>
<feColorMatrix in="SourceAlpha" type="matrix" values="0 0 0 0 0 0 0 0 0 0 0 0 0 0 0 0 0 0 127 0" result="hardAlpha"/>
<feOffset dy="4"/>
<feGaussianBlur stdDeviation="8.5"/>
<feComposite in2="hardAlpha" operator="out"/>
<feColorMatrix type="matrix" values="0 0 0 0 0.172549 0 0 0 0 0.513726 0 0 0 0 0.54902 0 0 0 1 0"/>
<feBlend mode="normal" in2="BackgroundImageFix" result="effect1_dropShadow_176_386"/>
<feBlend mode="normal" in="SourceGraphic" in2="effect1_dropShadow_176_386" result="shape"/>
</filter>
<filter id="filter1_d_176_386" x="0" y="0" width="94" height="94" filterUnits="userSpaceOnUse" color-interpolation-filters="sRGB">
<feFlood flood-opacity="0" result="BackgroundImageFix"/>
<feColorMatrix in="SourceAlpha" type="matrix" values="0 0 0 0 0 0 0 0 0 0 0 0 0 0 0 0 0 0 127 0" result="hardAlpha"/>
<feOffset/>
<feGaussianBlur stdDeviation="10"/>
<feColorMatrix type="matrix" values="0 0 0 0 0 0 0 0 0 0.925373 0 0 0 0 1 0 0 0 0.4 0"/>
<feBlend mode="normal" in2="BackgroundImageFix" result="effect1_dropShadow_176_386"/>
<feBlend mode="normal" in="SourceGraphic" in2="effect1_dropShadow_176_386" result="shape"/>
</filter>
<filter id="filter2_d_176_386" x="18.8749" y="9.12503" width="56.25" height="59.5" filterUnits="userSpaceOnUse" color-interpolation-filters="sRGB">
<feFlood flood-opacity="0" result="BackgroundImageFix"/>
<feColorMatrix in="SourceAlpha" type="matrix" values="0 0 0 0 0 0 0 0 0 0 0 0 0 0 0 0 0 0 127 0" result="hardAlpha"/>
<feOffset/>
<feGaussianBlur stdDeviation="10"/>
<feColorMatrix type="matrix" values="0 0 0 0 0 0 0 0 0 0.925373 0 0 0 0 1 0 0 0 0.4 0"/>
<feBlend mode="normal" in2="BackgroundImageFix" result="effect1_dropShadow_176_386"/>
<feBlend mode="normal" in="SourceGraphic" in2="effect1_dropShadow_176_386" result="shape"/>
</filter>
<linearGradient id="paint0_linear_176_386" x1="21" y1="73" x2="73" y2="73" gradientUnits="userSpaceOnUse">
<stop stop-color="#418DFF"/>
<stop offset="1" stop-color="#4BFFDF"/>
</linearGradient>
<linearGradient id="paint1_linear_176_386" x1="38.8749" y1="48.625" x2="55.1249" y2="48.625" gradientUnits="userSpaceOnUse">
<stop stop-color="#418DFF"/>
<stop offset="1" stop-color="#4BFFDF"/>
</linearGradient>
</defs>
</svg>
