<svg width="60" height="60" fill="none" xmlns="http://www.w3.org/2000/svg"><path d="M11.429 4 4 11.672V56m7.429-52H48.57M11.43 4v37.508M4 56h52M4 56l7.429-14.492M56 56V11.672L48.571 4M56 56l-7.429-14.492m0-37.508v37.508m-37.142 0H48.57" stroke="url(#a)" stroke-width="2" stroke-linejoin="round"/><path d="M37.992 22.028c-.186-.253-.541-.411-.927-.411H33.25V12.92c0-.439-2.665-.795-3.25-.795s-3.25.356-3.25.796v8.696h-3.816c-.387 0-.741.158-.926.411a.629.629 0 0 0 .03.809l7.065 8.417c.195.231.532.371.897.371.364 0 .702-.14.897-.371l7.065-8.418a.664.664 0 0 0 .163-.424.65.65 0 0 0-.133-.384Z" fill="url(#b)"/><defs><linearGradient id="a" x1="4" y1="56" x2="56" y2="56" gradientUnits="userSpaceOnUse"><stop stop-color="#418DFF"/><stop offset="1" stop-color="#4BFFDF"/></linearGradient><linearGradient id="b" x1="21.875" y1="31.625" x2="38.125" y2="31.625" gradientUnits="userSpaceOnUse"><stop stop-color="#418DFF"/><stop offset="1" stop-color="#4BFFDF"/></linearGradient></defs></svg>