<svg width="94" height="94" viewBox="0 0 94 94" fill="none" xmlns="http://www.w3.org/2000/svg">
<g filter="url(#filter0_d_759_301)">
<path d="M28.4286 21L21 28.6721V73M28.4286 21H65.5714M28.4286 21V58.5082M21 73H73M21 73L28.4286 58.5082M73 73V28.6721L65.5714 21M73 73L65.5714 58.5082M65.5714 21V58.5082M28.4286 58.5082H65.5714" stroke="url(#paint0_linear_759_301)" stroke-width="2" stroke-linejoin="round"/>
</g>
<g filter="url(#filter1_d_759_301)">
<path d="M46.8467 46.8672C47.1002 46.6807 47.2583 46.3261 47.2583 45.9404L47.2583 42.125L55.9545 42.125C56.3936 42.125 56.75 39.46 56.75 38.8751C56.75 38.2902 56.3936 35.625 55.9545 35.625L47.2583 35.625L47.2583 31.8097C47.2583 31.4226 47.1002 31.068 46.8467 30.8829C46.5932 30.695 46.2835 30.7077 46.0385 30.9126L37.6212 37.9779C37.39 38.1729 37.25 38.5106 37.25 38.8751C37.25 39.2396 37.39 39.5772 37.6212 39.7722L46.0385 46.8376C46.1679 46.9449 46.3154 47 46.4628 47C46.5943 47 46.7269 46.9548 46.8467 46.8672Z" fill="url(#paint1_linear_759_301)"/>
</g>
<defs>
<filter id="filter0_d_759_301" x="0" y="0" width="94" height="94" filterUnits="userSpaceOnUse" color-interpolation-filters="sRGB">
<feFlood flood-opacity="0" result="BackgroundImageFix"/>
<feColorMatrix in="SourceAlpha" type="matrix" values="0 0 0 0 0 0 0 0 0 0 0 0 0 0 0 0 0 0 127 0" result="hardAlpha"/>
<feOffset/>
<feGaussianBlur stdDeviation="10"/>
<feColorMatrix type="matrix" values="0 0 0 0 0 0 0 0 0 0.925373 0 0 0 0 1 0 0 0 0.4 0"/>
<feBlend mode="normal" in2="BackgroundImageFix" result="effect1_dropShadow_759_301"/>
<feBlend mode="normal" in="SourceGraphic" in2="effect1_dropShadow_759_301" result="shape"/>
</filter>
<filter id="filter1_d_759_301" x="17.25" y="10.75" width="59.5" height="56.25" filterUnits="userSpaceOnUse" color-interpolation-filters="sRGB">
<feFlood flood-opacity="0" result="BackgroundImageFix"/>
<feColorMatrix in="SourceAlpha" type="matrix" values="0 0 0 0 0 0 0 0 0 0 0 0 0 0 0 0 0 0 127 0" result="hardAlpha"/>
<feOffset/>
<feGaussianBlur stdDeviation="10"/>
<feColorMatrix type="matrix" values="0 0 0 0 0 0 0 0 0 0.925373 0 0 0 0 1 0 0 0 0.4 0"/>
<feBlend mode="normal" in2="BackgroundImageFix" result="effect1_dropShadow_759_301"/>
<feBlend mode="normal" in="SourceGraphic" in2="effect1_dropShadow_759_301" result="shape"/>
</filter>
<linearGradient id="paint0_linear_759_301" x1="21" y1="73" x2="73" y2="73" gradientUnits="userSpaceOnUse">
<stop stop-color="#418DFF"/>
<stop offset="1" stop-color="#4BFFDF"/>
</linearGradient>
<linearGradient id="paint1_linear_759_301" x1="37.25" y1="30.75" x2="37.25" y2="47" gradientUnits="userSpaceOnUse">
<stop stop-color="#418DFF"/>
<stop offset="1" stop-color="#4BFFDF"/>
</linearGradient>
</defs>
</svg>
