<svg width="94" height="94" viewBox="0 0 94 94" fill="none" xmlns="http://www.w3.org/2000/svg">
<g filter="url(#filter0_d_759_304)">
<path d="M28.4286 21L21 28.6721V73M28.4286 21H65.5714M28.4286 21V58.5082M21 73H73M21 73L28.4286 58.5082M73 73V28.6721L65.5714 21M73 73L65.5714 58.5082M65.5714 21V58.5082M28.4286 58.5082H65.5714" stroke="url(#paint0_linear_759_304)" stroke-width="2" stroke-linejoin="round"/>
</g>
<g filter="url(#filter1_d_759_304)">
<path d="M47.1533 30.8828C46.8998 31.0693 46.7417 31.4239 46.7417 31.8096L46.7417 35.625L38.0455 35.625C37.6064 35.625 37.25 38.2901 37.25 38.875C37.25 39.4599 37.6064 42.125 38.0455 42.125L46.7417 42.125L46.7417 45.9404C46.7417 46.3275 46.8998 46.6821 47.1533 46.8672C47.4068 47.0551 47.7165 47.0423 47.9615 46.8375L56.3788 39.7721C56.61 39.5772 56.75 39.2395 56.75 38.875C56.75 38.5105 56.61 38.1728 56.3788 37.9779L47.9615 30.9125C47.8321 30.8051 47.6846 30.75 47.5372 30.75C47.4057 30.75 47.2731 30.7952 47.1533 30.8828Z" fill="url(#paint1_linear_759_304)"/>
</g>
<defs>
<filter id="filter0_d_759_304" x="0" y="0" width="94" height="94" filterUnits="userSpaceOnUse" color-interpolation-filters="sRGB">
<feFlood flood-opacity="0" result="BackgroundImageFix"/>
<feColorMatrix in="SourceAlpha" type="matrix" values="0 0 0 0 0 0 0 0 0 0 0 0 0 0 0 0 0 0 127 0" result="hardAlpha"/>
<feOffset/>
<feGaussianBlur stdDeviation="10"/>
<feColorMatrix type="matrix" values="0 0 0 0 0 0 0 0 0 0.925373 0 0 0 0 1 0 0 0 0.4 0"/>
<feBlend mode="normal" in2="BackgroundImageFix" result="effect1_dropShadow_759_304"/>
<feBlend mode="normal" in="SourceGraphic" in2="effect1_dropShadow_759_304" result="shape"/>
</filter>
<filter id="filter1_d_759_304" x="17.25" y="10.75" width="59.5" height="56.25" filterUnits="userSpaceOnUse" color-interpolation-filters="sRGB">
<feFlood flood-opacity="0" result="BackgroundImageFix"/>
<feColorMatrix in="SourceAlpha" type="matrix" values="0 0 0 0 0 0 0 0 0 0 0 0 0 0 0 0 0 0 127 0" result="hardAlpha"/>
<feOffset/>
<feGaussianBlur stdDeviation="10"/>
<feColorMatrix type="matrix" values="0 0 0 0 0 0 0 0 0 0.925373 0 0 0 0 1 0 0 0 0.4 0"/>
<feBlend mode="normal" in2="BackgroundImageFix" result="effect1_dropShadow_759_304"/>
<feBlend mode="normal" in="SourceGraphic" in2="effect1_dropShadow_759_304" result="shape"/>
</filter>
<linearGradient id="paint0_linear_759_304" x1="21" y1="73" x2="73" y2="73" gradientUnits="userSpaceOnUse">
<stop stop-color="#418DFF"/>
<stop offset="1" stop-color="#4BFFDF"/>
</linearGradient>
<linearGradient id="paint1_linear_759_304" x1="56.75" y1="47" x2="56.75" y2="30.75" gradientUnits="userSpaceOnUse">
<stop stop-color="#418DFF"/>
<stop offset="1" stop-color="#4BFFDF"/>
</linearGradient>
</defs>
</svg>
