<svg width="60" height="60" fill="none" xmlns="http://www.w3.org/2000/svg"><path d="M11.429 4 4 11.672V56m7.429-52H48.57M11.43 4v37.508M4 56h52M4 56l7.429-14.492M56 56V11.672L48.571 4M56 56l-7.429-14.492m0-37.508v37.508m-37.142 0H48.57" stroke="url(#a)" stroke-width="2" stroke-linejoin="round"/><path d="M30.153 13.883c-.253.186-.411.54-.411.927v3.815h-8.697c-.439 0-.795 2.665-.795 3.25s.356 3.25.796 3.25h8.696v3.815c0 .387.158.742.411.927a.629.629 0 0 0 .809-.03l8.417-7.065c.231-.195.371-.532.371-.897 0-.364-.14-.702-.371-.897l-8.417-7.066a.664.664 0 0 0-.425-.162.65.65 0 0 0-.384.133Z" fill="url(#b)"/><defs><linearGradient id="a" x1="4" y1="56" x2="56" y2="56" gradientUnits="userSpaceOnUse"><stop stop-color="#418DFF"/><stop offset="1" stop-color="#4BFFDF"/></linearGradient><linearGradient id="b" x1="39.75" y1="30" x2="39.75" y2="13.75" gradientUnits="userSpaceOnUse"><stop stop-color="#418DFF"/><stop offset="1" stop-color="#4BFFDF"/></linearGradient></defs></svg>