<svg width="94" height="94" viewBox="0 0 94 94" fill="none" xmlns="http://www.w3.org/2000/svg">
<g filter="url(#filter0_d_759_303)">
<path d="M28.4286 21L21 28.6721V73M28.4286 21H65.5714M28.4286 21V58.5082M21 73H73M21 73L28.4286 58.5082M73 73V28.6721L65.5714 21M73 73L65.5714 58.5082M65.5714 21V58.5082M28.4286 58.5082H65.5714" stroke="url(#paint0_linear_759_303)" stroke-width="2" stroke-linejoin="round"/>
</g>
<g filter="url(#filter1_d_759_303)">
<path d="M39.0078 38.7218C39.1943 38.9753 39.5489 39.1333 39.9346 39.1333L43.75 39.1333L43.75 47.8295C43.75 48.2687 46.4151 48.625 47 48.625C47.5849 48.625 50.25 48.2687 50.25 47.8295L50.25 39.1333L54.0653 39.1333C54.4524 39.1333 54.807 38.9753 54.9921 38.7218C55.18 38.4683 55.1673 38.1586 54.9625 37.9136L47.8971 29.4963C47.7021 29.265 47.3645 29.125 47 29.125C46.6355 29.125 46.2978 29.265 46.1028 29.4963L39.0375 37.9136C38.9301 38.043 38.875 38.1904 38.875 38.3378C38.875 38.4693 38.9202 38.6019 39.0078 38.7218Z" fill="url(#paint1_linear_759_303)"/>
</g>
<defs>
<filter id="filter0_d_759_303" x="0" y="0" width="94" height="94" filterUnits="userSpaceOnUse" color-interpolation-filters="sRGB">
<feFlood flood-opacity="0" result="BackgroundImageFix"/>
<feColorMatrix in="SourceAlpha" type="matrix" values="0 0 0 0 0 0 0 0 0 0 0 0 0 0 0 0 0 0 127 0" result="hardAlpha"/>
<feOffset/>
<feGaussianBlur stdDeviation="10"/>
<feColorMatrix type="matrix" values="0 0 0 0 0 0 0 0 0 0.925373 0 0 0 0 1 0 0 0 0.4 0"/>
<feBlend mode="normal" in2="BackgroundImageFix" result="effect1_dropShadow_759_303"/>
<feBlend mode="normal" in="SourceGraphic" in2="effect1_dropShadow_759_303" result="shape"/>
</filter>
<filter id="filter1_d_759_303" x="18.875" y="9.12503" width="56.25" height="59.5" filterUnits="userSpaceOnUse" color-interpolation-filters="sRGB">
<feFlood flood-opacity="0" result="BackgroundImageFix"/>
<feColorMatrix in="SourceAlpha" type="matrix" values="0 0 0 0 0 0 0 0 0 0 0 0 0 0 0 0 0 0 127 0" result="hardAlpha"/>
<feOffset/>
<feGaussianBlur stdDeviation="10"/>
<feColorMatrix type="matrix" values="0 0 0 0 0 0 0 0 0 0.925373 0 0 0 0 1 0 0 0 0.4 0"/>
<feBlend mode="normal" in2="BackgroundImageFix" result="effect1_dropShadow_759_303"/>
<feBlend mode="normal" in="SourceGraphic" in2="effect1_dropShadow_759_303" result="shape"/>
</filter>
<linearGradient id="paint0_linear_759_303" x1="21" y1="73" x2="73" y2="73" gradientUnits="userSpaceOnUse">
<stop stop-color="#418DFF"/>
<stop offset="1" stop-color="#4BFFDF"/>
</linearGradient>
<linearGradient id="paint1_linear_759_303" x1="55.125" y1="29.125" x2="38.875" y2="29.125" gradientUnits="userSpaceOnUse">
<stop stop-color="#418DFF"/>
<stop offset="1" stop-color="#4BFFDF"/>
</linearGradient>
</defs>
</svg>
